<svg xmlns="http://www.w3.org/2000/svg" viewBox="0 0 40 40" role="img" aria-label="Claude">
  <rect width="40" height="40" rx="9" fill="#DA7756"/>
  <g stroke="#FFFFFF" stroke-width="2.6" stroke-linecap="round">
    <line x1="20" y1="6" x2="20" y2="16.5" transform="rotate(0 20 20)"/>
    <line x1="20" y1="6" x2="20" y2="16.5" transform="rotate(30 20 20)"/>
    <line x1="20" y1="6" x2="20" y2="16.5" transform="rotate(60 20 20)"/>
    <line x1="20" y1="6" x2="20" y2="16.5" transform="rotate(90 20 20)"/>
    <line x1="20" y1="6" x2="20" y2="16.5" transform="rotate(120 20 20)"/>
    <line x1="20" y1="6" x2="20" y2="16.5" transform="rotate(150 20 20)"/>
    <line x1="20" y1="6" x2="20" y2="16.5" transform="rotate(180 20 20)"/>
    <line x1="20" y1="6" x2="20" y2="16.5" transform="rotate(210 20 20)"/>
    <line x1="20" y1="6" x2="20" y2="16.5" transform="rotate(240 20 20)"/>
    <line x1="20" y1="6" x2="20" y2="16.5" transform="rotate(270 20 20)"/>
    <line x1="20" y1="6" x2="20" y2="16.5" transform="rotate(300 20 20)"/>
    <line x1="20" y1="6" x2="20" y2="16.5" transform="rotate(330 20 20)"/>
  </g>
</svg>
